<?xml version="1.0" standalone="no"?><!DOCTYPE svg PUBLIC "-//W3C//DTD SVG 1.1//EN" "http://www.w3.org/Graphics/SVG/1.1/DTD/svg11.dtd"><svg t="1508744491850" class="icon" style="" viewBox="0 0 1024 1024" version="1.1" xmlns="http://www.w3.org/2000/svg" p-id="4097" xmlns:xlink="http://www.w3.org/1999/xlink" width="200" height="200"><defs><style type="text/css"></style></defs><path d="M512 1024C229.225412 1024 0 794.774588 0 512 0 229.225412 229.225412 0 512 0 794.774588 0 1024 229.225412 1024 512 1024 794.774588 794.774588 1024 512 1024ZM512 30.117647C245.865412 30.117647 30.117647 245.865412 30.117647 512 30.117647 778.134588 245.865412 993.882353 512 993.882353 778.134588 993.882353 993.882353 778.134588 993.882353 512 993.882353 245.865412 778.134588 30.117647 512 30.117647ZM271.058824 481.882353 752.941176 481.882353 752.941176 542.117647 271.058824 542.117647 271.058824 481.882353Z" p-id="4098"></path></svg>